<svg xmlns="http://www.w3.org/2000/svg" viewBox="0 0 42.1 42">
	<defs>
		<style>
			.cloak{fill:#00b980;}
			.trim{
				fill:none;
				stroke:#ff0;
				stroke-linecap:round;
				stroke-miterlimit:10;
			}
			.overlay{opacity:0.2;}
			.face, .body{fill:#000;}
			.eyes{fill:#fff;}
		</style>
	</defs>
	<title>Avatar</title>
	<g>
		<polygon class="body" points="28.84 41.51 12.62 41.51 16.62 17.67 24.84 17.67 28.84 41.51"/>
	</g>
	<g id="cloakBody">
		<path class="cloak" d="M16.16,18.23s-8,3.48-7.42,22.42c0,0,12.08,7.49,12.08-21.86"/>
		<path class="overlay" d="M16.16,18.23s-8,3.48-7.42,22.42c0,0,12.08,7.49,12.08-21.86"/>
		<path class="cloak" d="M25.93,18.23s8,3.48,7.43,22.42c0,0-12.09,7.49-12.09-21.86"/>
		<path class="overlay" d="M25.93,18.23s8,3.48,7.43,22.42c0,0-12.09,7.49-12.09-21.86"/>
	</g>
	<g id="cloakHead">
		<path class="cloak" d="M18.34,15.14l-7.72,6.22s2.1,2.5,10,2.5l.22-7.43Z"/>
		<path class="cloak" d="M18.5,1.28,14.07,6.06a6.5,6.5,0,0,0-1.34,6.68,8.85,8.85,0,0,0,8.84,6.17c5.78,0,7.79-3.83,8.49-6.85a6.54,6.54,0,0,0-1.37-5.64l-4.21-5A4,4,0,0,0,18.5,1.28Z"/>
		<path class="cloak" d="M23.76,15.14l7.72,6.23s-2.1,2.49-10,2.49l-.23-7.43Z"/>
	</g>
	<g>
		<path class="face" d="M18.86,3.14,16.5,5.69a6.38,6.38,0,0,0,.21,9.06,6.89,6.89,0,0,0,4.76,1.65,6,6,0,0,0,5.7-3.08,6.39,6.39,0,0,0-.8-7.18L23.93,3.26A3.37,3.37,0,0,0,18.86,3.14Z"/>
	</g>
	<g id="eyeL">
		<circle class="eyes" cx="19.4" cy="8.71" r="0.76"/>
	</g>
	<g id="eyeR">
		<circle class="eyes" cx="23.04" cy="8.71" r="0.76"/>
	</g>
	<g>
		<path class="trim" d="M8.74,40.65s10.6,6.57,11.94-16.72"/>
		<path class="trim" d="M33.36,40.65S22.74,47.23,21.41,23.87"/>
		<path class="trim" d="M10.62,21.36s2.1,2.5,10,2.5"/>
		<path class="trim" d="M31.48,21.37s-2.1,2.49-10,2.49"/>
		<path class="trim" d="M18.86,3.14,16.5,5.69a6.38,6.38,0,0,0,.21,9.06,6.89,6.89,0,0,0,4.76,1.65,6,6,0,0,0,5.7-3.08,6.39,6.39,0,0,0-.8-7.18L23.93,3.26A3.37,3.37,0,0,0,18.86,3.14Z"/>
		<line class="trim" x1="21.05" y1="19.08" x2="21.05" y2="23.86"/>
	</g>
</svg>