<?xml version="1.0" encoding="UTF-8"?>
<svg width="32px" height="32px" viewBox="0 0 32 32" version="1.1" xmlns="http://www.w3.org/2000/svg" xmlns:xlink="http://www.w3.org/1999/xlink">
    <title>icon-close</title>
    <g id="icon-close" stroke="none" stroke-width="1" fill="none" fill-rule="evenodd">
        <g id="icon-close-copy">
            <g id="Icon" transform="translate(2.000000, 2.000000)" fill="#FFFFFF" fill-rule="nonzero">
                <path d="M15.9334385,14.0481052 L19.7054385,17.8187718 C20.2264271,18.3397605 20.2264271,19.1844499 19.7054385,19.7054385 C19.1844499,20.2264271 18.3397605,20.2264271 17.8187718,19.7054385 L14.0481052,15.9334385 L10.2774385,19.7054385 C9.94041797,20.0424591 9.44919983,20.1740806 8.98882122,20.0507225 C8.5284426,19.9273644 8.16884596,19.5677678 8.04548788,19.1073891 C7.9221298,18.6470105 8.05375131,18.1557924 8.39077185,17.8187718 L12.1627718,14.0481052 L8.39077185,10.2774385 C8.05375131,9.94041797 7.9221298,9.44919983 8.04548788,8.98882122 C8.16884596,8.5284426 8.5284426,8.16884596 8.98882122,8.04548788 C9.44919983,7.9221298 9.94041797,8.05375131 10.2774385,8.39077185 L14.0481052,12.1627718 L17.8187718,8.39077185 C18.3397605,7.86978323 19.1844499,7.86978323 19.7054385,8.39077185 C20.2264271,8.91176046 20.2264271,9.7564499 19.7054385,10.2774385 L15.9334385,14.0481052 Z M14,28 C6.2678,28 0,21.7322 0,14 C0,6.2678 6.2678,0 14,0 C21.7322,0 28,6.2678 28,14 C28,21.7322 21.7322,28 14,28 Z M14.005,25.63 C20.4253102,25.63 25.63,20.4253102 25.63,14.005 C25.63,7.58468978 20.4253102,2.38 14.005,2.38 C7.58468978,2.38 2.38,7.58468978 2.38,14.005 C2.38,20.4253102 7.58468978,25.63 14.005,25.63 Z" id="Icon-Shape"></path>
            </g>
            <rect id="ViewBox" x="0" y="0" width="32" height="32"></rect>
        </g>
    </g>
</svg>