<?xml version="1.0" encoding="UTF-8"?>
<svg width="24px" height="24px" viewBox="0 0 24 24" version="1.1" xmlns="http://www.w3.org/2000/svg" xmlns:xlink="http://www.w3.org/1999/xlink">
    <title>icon-crown</title>
    <g id="icon-crown" stroke="none" stroke-width="1" fill="none" fill-rule="evenodd">
        <g id="icon/crown">
            <g>
                <g id="Icon" transform="translate(1.000000, 0.000000)" fill="#FFBB01">
                    <path d="M20.832,20.1963158 C21.362521,20.1966643 21.7926318,20.626742 21.7926318,21.1572632 L21.7926318,21.1572632 L21.7926318,22.3796842 C21.7926318,22.6345109 21.691644,22.8789488 21.5114543,23.0591385 C21.3312646,23.2393282 21.0868267,23.3404835 20.832,23.340316 L20.832,23.340316 L1.27357895,23.340316 C1.01877793,23.3403996 0.774388836,23.2392174 0.594217299,23.0590459 C0.414045763,22.8788743 0.312947316,22.6344852 0.312947316,22.3796842 L0.312947316,22.3796842 L0.312947316,21.1572632 C0.312947316,20.626742 0.743057911,20.1966643 1.27357895,20.1963158 L1.27357895,20.1963158 Z M11.0529474,4.93547368 C11.3371428,4.93569765 11.6085064,5.05382602 11.8023158,5.26168421 L11.8023158,5.26168421 L11.8121053,5.25189474 L16.818,10.2577895 L18.9909474,8.08484211 C19.0214604,8.04975073 19.0543823,8.01682885 19.0894737,7.98631579 L19.0894737,7.98631579 L19.1210526,7.96042105 C19.2982105,7.818 19.5202105,7.72894737 19.7652632,7.72894737 C20.0763507,7.72912572 20.3707487,7.86966652 20.5665003,8.11144491 C20.762252,8.3532233 20.8384547,8.67042205 20.7738947,8.97473684 L20.7738947,8.97473684 L20.7738947,17.0161053 L20.7622105,17.0161053 C20.7028421,17.5292632 20.2714737,17.9296842 19.7425263,17.9296842 C19.7384211,17.9296842 19.7349474,17.9284211 19.7308421,17.9284211 L19.7308421,17.9284211 L19.7308421,17.9524211 L2.37410526,17.9511579 C2.37031579,17.9514737 2.36652632,17.9524211 2.36273684,17.9524211 C1.82557895,17.9524211 1.38947368,17.54 1.34052632,17.0161053 L1.34052632,17.0161053 L1.308,18.0161053 L1.308,8.78305263 L1.33326316,8.78305263 C1.34544702,8.22305802 1.80260998,7.77529075 2.36273684,7.77473684 C2.6087287,7.77560219 2.84617435,7.86506471 3.03221053,8.02610526 L3.03221053,8.02610526 C3.07304113,8.06256818 3.10647783,8.0958994 3.13768421,8.13126316 L3.13768421,8.13126316 L5.27431579,10.2682105 L10.2912632,5.25189474 L10.3023158,5.26294737 C10.4962495,5.05436513 10.7681374,4.93575017 11.0529474,4.93547368 Z M2.32042105,2.55410526 C3.37418036,2.55410526 4.22842105,3.40834596 4.22842105,4.46210526 C4.22842105,5.51586457 3.37418036,6.37010526 2.32042105,6.37010526 C1.26666175,6.37010526 0.412421053,5.51586457 0.412421053,4.46210526 C0.412421053,3.40834596 1.26666175,2.55410526 2.32042105,2.55410526 Z M19.6888421,2.55410526 C20.7426014,2.55410526 21.5968421,3.40834596 21.5968421,4.46210526 C21.5968421,5.51586457 20.7426014,6.37010526 19.6888421,6.37010526 C18.6350828,6.37010526 17.7808421,5.51586457 17.7808421,4.46210526 C17.7808421,3.40834596 18.6350828,2.55410526 19.6888421,2.55410526 Z M11.1625263,0.0277894737 C12.2162856,0.0277894737 13.0705263,0.882030171 13.0705263,1.93578947 C13.0705263,2.98954878 12.2162856,3.84378947 11.1625263,3.84378947 C10.108767,3.84378947 9.25452632,2.98954878 9.25452632,1.93578947 C9.25452632,0.882030171 10.108767,0.0277894737 11.1625263,0.0277894737 Z" id="crown"></path>
                </g>
                <rect id="ViewBox" fill-rule="nonzero" x="0" y="0" width="24" height="24"></rect>
            </g>
        </g>
    </g>
</svg>