<?xml version="1.0" encoding="UTF-8"?>
<svg width="24px" height="24px" viewBox="0 0 24 24" version="1.1" xmlns="http://www.w3.org/2000/svg" xmlns:xlink="http://www.w3.org/1999/xlink">
    <title>icon-check</title>
    <g id="icon-check" stroke="none" stroke-width="1" fill="none" fill-rule="evenodd">
        <g id="icon/check" transform="translate(1.000000, 1.000000)">
            <g transform="translate(-0.916667, 0.000000)">
                <g id="Icon" transform="translate(0.806667, 1.650000)" fill="#00D673" stroke="#5FD87D">
                    <path d="M21.7190231,0.337280673 C21.8989051,0.552663272 22,0.845112172 22,1.15009491 C22,1.45507764 21.8989051,1.74752654 21.7190231,1.96290914 L8.32949474,18.035507 C8.15006691,18.2514348 7.90643779,18.3727877 7.65236717,18.3727877 C7.39829654,18.3727877 7.15466743,18.2514348 6.97523959,18.035507 L0.280475425,9.99920806 C-0.0934918084,9.55030316 -0.0934918084,8.8224845 0.280475425,8.3735796 C0.654442659,7.92467469 1.26076334,7.92467469 1.63473058,8.3735796 L7.65236717,15.5993604 L20.3647679,0.337280673 C20.5441958,0.121352896 20.7878249,0 21.0418955,0 C21.2959661,0 21.5395952,0.121352896 21.7190231,0.337280673 Z" id="check"></path>
                </g>
                <rect id="ViewBox" fill-rule="nonzero" x="0.916666667" y="0" width="22" height="22"></rect>
            </g>
        </g>
    </g>
</svg>