<?xml version="1.0" encoding="UTF-8"?>
<svg width="24px" height="24px" viewBox="0 0 24 24" version="1.1" xmlns="http://www.w3.org/2000/svg" xmlns:xlink="http://www.w3.org/1999/xlink">
    <title>icon-hammer</title>
    <g id="icon-hammer" stroke="none" stroke-width="1" fill="none" fill-rule="evenodd">
        <g id="icon/hammer">
            <g id="icon">
                <g id="Icon" fill="#FFBB01">
                    <path d="M1.13347863,21 L12.468265,21 C13.0916782,21 13.6017436,21.7065 13.6017436,22.57 C13.6017436,23.4335 13.0916782,24.14 12.468265,24.14 L1.13347863,24.14 C0.510065385,24.14 0,23.4335 0,22.57 C0,21.7065 0.510065385,21 1.13347863,21 Z M4.80594941,7.07716399 L8.01369394,3.86941946 L22.442877,18.2986025 C23.3269903,19.1827158 23.3269903,20.6222337 22.442877,21.506347 C21.5587636,22.3904603 20.1192458,22.3904603 19.2351324,21.506347 L4.80594941,7.07716399 Z M14.429183,0.661674921 L17.6369275,3.86941946 C18.5210409,4.75353279 18.5210409,6.19305066 17.6369275,7.07716399 L16.0273879,8.68670365 L9.6232336,2.27121458 L11.2214385,0.673009708 C12.1055518,-0.222438414 13.5450697,-0.222438414 14.429183,0.661674921 L14.429183,0.661674921 Z M3.20774453,8.67536887 L9.6232336,15.0908579 L8.02502873,16.6890628 C7.1409154,17.5731761 5.70139753,17.5731761 4.8172842,16.6890628 L1.60953966,13.4813183 C0.725426326,12.5972049 0.725426326,11.1576871 1.60953966,10.2735737 L3.20774453,8.67536887 Z" id="hammer"></path>
                </g>
                <rect id="ViewBox" fill-rule="nonzero" x="0" y="0" width="24" height="24"></rect>
            </g>
        </g>
    </g>
</svg>