<?xml version="1.0" encoding="UTF-8"?>
<svg width="24px" height="24px" viewBox="0 0 24 24" version="1.1" xmlns="http://www.w3.org/2000/svg" xmlns:xlink="http://www.w3.org/1999/xlink">
    <title>icon-x</title>
    <g id="icon-x" stroke="none" stroke-width="1" fill="none" fill-rule="evenodd">
        <g id="icon/x" transform="translate(1.000000, 1.000000)">
            <g transform="translate(-0.916667, -0.916667)">
                <g id="Icon" transform="translate(0.806667, 0.733333)" fill="#D10146">
                    <path d="M14.428989,11.0000276 L21.2893366,17.8579503 C22.2368878,18.8055015 22.2368878,20.3417854 21.2893366,21.2893366 C20.3417854,22.2368878 18.8055015,22.2368878 17.8579503,21.2893366 L11.0000276,14.428989 L4.14210498,21.2893366 C3.52914685,21.9022948 2.63574091,22.1416822 1.79842453,21.9173239 C0.961108147,21.6929657 0.307089606,21.0389471 0.0827313584,20.2016307 C-0.141626889,19.3643144 0.0977605112,18.4709084 0.710718643,17.8579503 L7.5710663,11.0000276 L0.710718643,4.14210498 C0.0977605112,3.52914685 -0.141626889,2.63574091 0.0827313584,1.79842453 C0.307089606,0.961108147 0.961108147,0.307089606 1.79842453,0.0827313584 C2.63574091,-0.141626889 3.52914685,0.0977605112 4.14210498,0.710718643 L11.0000276,7.5710663 L17.8579503,0.710718643 C18.8055015,-0.236832529 20.3417854,-0.236832529 21.2893366,0.710718643 C22.2368878,1.65826981 22.2368878,3.19455381 21.2893366,4.14210498 L14.428989,11.0000276 Z" id="x"></path>
                </g>
                <rect id="ViewBox" fill-rule="nonzero" x="0.916666667" y="0.916666667" width="22" height="22"></rect>
            </g>
        </g>
    </g>
</svg>